<svg>
<g>

<svg
 xmlns="http://www.w3.org/2000/svg" id="yago.svg" width="64" height="64"><path  d="m61.5 44.2-16.8-17 1.8-9.2 1.6.2a4.3 4.3 0 1 0-4-2.8l-10 1.2L18 .3a1 1 0 0 0-.7-.3 1 1 0 0 0-.8.3l-3 3a1 1 0 0 0 0 1.5L15 6.5A29.9 29.9 0 0 0 20.4 42l-.1 1v12.5H7.5c-3 0-5.4 2.4-5.4 5.3v2.1c0 .6.5 1.1 1.1 1.1h49c.7 0 1.1-.5 1.1-1v-2.2c0-3-2.3-5.3-5.3-5.3H35.2V50a30 30 0 0 0 20.2-3l1.6 1.7c.2.2.5.3.8.3.3 0 .5 0 .7-.3l3-3c.5-.4.5-1 0-1.5Zm-15-31.7a2.1 2.1 0 1 1 1.6 3.6 2.1 2.1 0 0 1-1.5-3.6Zm-2.5 7L43 25.4 40.5 23l3.5-3.5Zm-1.2-1.8L39 21.5l-3-3 6.8-.8ZM48 57.6c1.8 0 3.2 1.4 3.2 3.2v1h-47v-1c0-1.8 1.5-3.2 3.3-3.2H48Zm-15-4.3v2.2H22.5v-2.2h10.7Zm-10.6-2.1v-8.1c0-2.6 2.4-4.7 5.3-4.7 3 0 5.4 2.1 5.4 4.7v8.1H22.4Zm12.8-3.4v-4.7c0-3.8-3.3-6.8-7.5-6.8a7.6 7.6 0 0 0-6.5 3.5 27.7 27.7 0 0 1-4.6-31.7l37.2 37.4c-5.7 2.9-12.3 3.7-18.6 2.3Zm22.6-1.4L56.3 45 17.2 5.6 15.7 4l1.5-1.5 15.9 16 26.2 26.3-1.5 1.5Z"/><path  d="M27.8 40.5a3.2 3.2 0 0 0 0 6.4 3.2 3.2 0 0 0 0-6.4Zm.7 4a1 1 0 1 1-.8-1.8 1 1 0 0 1 .8 1.8Z"/>
</svg>

<!--COMPANY TAGLINE-->
  <svg
xmlns="http://www.w3.org/2000/svg" id="tagline" width="64" height="64" ><g clip-path="url(#a)"><path  d="M62.6 30.6A30.6 30.6 0 1 0 23 59.8c.3 0 .5 0 .7-.2.3-.1.5-.4.6-.7L32 34.4a3.8 3.8 0 1 0-1.7-7.2L20.1 16.9a1.3 1.3 0 0 0-1.8 1.8L28.5 29a3.8 3.8 0 0 0 1.1 4.6l-7.4 23.3a28 28 0 1 1 21.2-.7l-.8-3.7a1.3 1.3 0 0 0-2.1-.7l-7.7 6.8a1.3 1.3 0 0 0 .5 2.2L43 64a1.3 1.3 0 0 0 1.6-1.4l-.8-3.7a30.5 30.5 0 0 0 18.7-28.2ZM32 29.3a1.3 1.3 0 1 1 0 2.6 1.3 1.3 0 0 1 0-2.6Zm4.2 29.8 4.4-4 1.2 5.7-5.6-1.7Z"/><path  d="M30.7 6.4v2.5a1.3 1.3 0 1 0 2.6 0V6.4a1.3 1.3 0 0 0-2.6 0ZM7.8 29.3a1.3 1.3 0 0 0 0 2.6h2.5a1.3 1.3 0 1 0 0-2.6H7.8ZM56.2 31.9a1.3 1.3 0 1 0 0-2.6h-2.5a1.3 1.3 0 0 0 0 2.6h2.5Z"/></g><defs><clipPath id="a"></clipPath></defs> 
</svg> 


<svg
xmlns="http://www.w3.org/2000/svg" id="brand" width="64" height="64" ><g clip-path="url(#a)"><path  d="M29.9 30h2v9.5h-2V30ZM38.4 34.2h2.1v5.3h-2.1v-5.3ZM21.3 37.4h2.2v2.1h-2.2v-2.1ZM15 36.3h2v3.2h-2v-3.2Z"/><path  d="M3.2 56.6h51.2c1.7 0 3.2-1.5 3.2-3.2V49c0-1.7-1.5-3.2-3.2-3.2h-1V19.3l6-5.7a3.2 3.2 0 1 0-1.5-1.5l-4.6 4.3v-2.5c0-1.7-1.4-3.2-3.2-3.2H7.5A3.2 3.2 0 0 0 4.3 14v32H3.2A3.2 3.2 0 0 0 0 49.1v4.3c0 1.7 1.4 3.2 3.2 3.2Zm57.6-47a1 1 0 1 1 0 2.2 1 1 0 0 1 0-2.1ZM6.4 14c0-.6.5-1 1-1h42.7c.6 0 1 .4 1 1v4.5l-2 2v-4.3c0-.6-.5-1.1-1.1-1.1H9.6a1 1 0 0 0-1 1v26.7c0 .6.4 1 1 1H48c.6 0 1-.4 1-1V23.4l2.2-2v24.5H6.4V14ZM16 27.8a3.2 3.2 0 1 0 2.2 5.5l3.7 1.9c.4.2 1 0 1.3-.3L31 26l7.7 5.8c.4.4 1 .3 1.4 0l6.7-6.4v16.3H10.7V17h36.2v5.4l-7.5 7.1-7.8-5.9a1 1 0 0 0-1.5.2l-8 9-3-1.5V31c0-1.8-1.3-3.2-3.1-3.2Zm1 3.2a1 1 0 1 1-2 0 1 1 0 0 1 2 0Zm6.5 17H34v1.1c0 .6-.5 1-1 1h-8.6a1 1 0 0 1-1-1v-1ZM2 49.2c0-.6.5-1 1.1-1h18.1v1c0 1.8 1.5 3.2 3.2 3.2H33c1.8 0 3.2-1.4 3.2-3.2v-1h18.2c.6 0 1 .4 1 1v4.3c0 .6-.4 1-1 1H3.2a1 1 0 0 1-1-1V49Z"/></g><defs><clipPath id="a"><path  d="M0 0h64v64H0z"/></clipPath></defs>
</svg> 




<svg
xmlns="http://www.w3.org/2000/svg" id="foster.svg" width="64" height="64" ><path  d="M64 9a1 1 0 0 0-1-.7l-3.7-.5-1.7-3.5c-.4-.7-1.6-.7-2 0L54 7.8l-3.8.5a1 1 0 0 0-.6 1.8l2.8 2.7-.7 3.8a1 1 0 0 0 1.6 1.2l3.4-1.8 3.4 1.8a1 1 0 0 0 1.6-1.2l-.7-3.8 2.8-2.7c.3-.2.4-.7.2-1Zm-5 2.7a1 1 0 0 0-.3 1l.4 2.2-2-1a1 1 0 0 0-1 0l-2 1 .4-2.3c0-.3 0-.7-.3-.9l-1.6-1.6 2.2-.3c.3 0 .6-.3.8-.6l1-2 1 2c.2.3.5.5.8.6l2.2.3-1.6 1.6ZM52.3 41H50v2.2h2.2V41ZM52.3 45.3H50v2.1h2.2v-2ZM54.4 43.2h-2.1v2.1h2.1v-2.1Z"/><path  d="M50.1 43.2H48v2.1h2.1v-2.1ZM44.8 52.8h-2.1v2.1h2.1v-2.1ZM44.8 57h-2.1v2.2h2.1V57ZM47 55h-2.2v2h2.1v-2ZM42.7 55h-2.2v2h2.2v-2ZM32 48.5h-2.1v2.1H32v-2ZM32 52.8h-2.1v2.1H32v-2.1ZM34.1 50.6H32v2.2h2.1v-2.2Z"/><path d="M29.9 50.6h-2.2v2.2H30v-2.2ZM11.7 12.2H9.6v2.2h2.1v-2.2ZM11.7 16.5H9.6v2.1h2.1v-2ZM13.9 14.4h-2.2v2.1H14v-2.1ZM9.6 14.4H7.5v2.1h2.1v-2.1Z"/><path  d="M49.4 28.3a3.5 3.5 0 0 0-2.3-1.4c-1-.1-2 .1-2.7.7l-2.5 2-3.8 2.8-2.7-1.1a13.9 13.9 0 0 0-5.7-26.5A14 14 0 0 0 18 26.2h-5.6a1 1 0 0 0-.3 0H12l-6.5 3.2-3.8 1.8-.1.1a3.6 3.6 0 0 0 3.7 6.1L8 36l4.6-2.3h2.7L4.4 44.4l-2.7 2.7a3.3 3.3 0 0 0 0 4.7 3.3 3.3 0 0 0 4.7 0l2.7-2.6 3.4-2.6 1.8 1.8-3.5 3.5-2.7 2.7a3.3 3.3 0 0 0 0 4.7 3.3 3.3 0 0 0 4.8 0l2.6-2.7 4.3-4.3 2-2L32.3 39l7 1a1 1 0 0 0 .5-.1l.2-.1 6.4-4.3h.2L49 33a3.6 3.6 0 0 0 .4-4.7ZM4.3 35.5c-.4.2-.8.3-1.2.1a1.4 1.4 0 0 1-.4-2.5L5.3 32l.7 1.8.2.8-2 1Zm7-3.6-3.1 1.6-.6-1.5-.3-1 4-2v2.9Zm30.2-13.3c0 1.9-.5 3.6-1.2 5.2L31.9 20c0-1.2-.7-2.2-1.6-2.8l3-9.7c4.7 1.5 8.2 6 8.2 11.1Zm-23.6 0A11.8 11.8 0 0 1 31.2 7l-3 9.5c-2 0-3.8 1.7-3.8 3.7a3.7 3.7 0 0 0 7 1.9l7.7 3.5a11.8 11.8 0 0 1-21.2-7Zm11.9 1.6c0 1-.7 1.6-1.6 1.6-1 0-1.6-.7-1.6-1.6 0-.8.7-1.6 1.6-1.6.9 0 1.6.8 1.6 1.6Zm-24.9 30c-.4.6-1.2.6-1.7 0a1.2 1.2 0 0 1 0-1.6l2-2 1.6 1.8L5 50.3Zm6.5 7.6c-.5.4-1.3.4-1.8 0a1.2 1.2 0 0 1 0-1.7l2-2 .8.9.9.8-2 2Zm7-7-3.6 3.5-.8-.8-1-.9 3.6-3.5.2-.2v-.1l.1-.3V48a1 1 0 0 0-.2-.3l-3.3-3.3h-.1l-.2-.2h-1v.1L8.4 47l-1.8-1.8 4.8-4.8 8.7 8.6-1.9 1.8Zm13.6-14h-.1a1 1 0 0 0-.6.1l-.2.2-9.5 10.3L13 39l5.6-5.6a1 1 0 0 0-.7-1.9h-4.5v-3.1h6.3a13.9 13.9 0 0 0 12.5 4l.3.1 4.8 2 .3 1.5.4 1.7-6-.8Zm8 .3-.6-3 3-2.2.7 1 1.1 1.5L40 37Zm7.5-5.6L46 33 44 30.6l1.7-1.3c.3-.2.7-.3 1-.3a1.4 1.4 0 0 1 .8 2.5Z"/><path d="m27.2 37-4.3-4.2a1 1 0 0 0-1.5 0l-4.3 4.3a1 1 0 0 0 0 1.5l4.3 4.3a1 1 0 0 0 1.5 0l4.3-4.3a1 1 0 0 0 0-1.5Zm-5 3.6-2.8-2.8 2.8-2.7 2.7 2.7-2.7 2.8ZM34.3 10.1l-.5 2.1c.2 0 3.5 1 3.5 4.3h2.1c0-4-3.3-6-5-6.4ZM39.4 18.6h-2.1v2.2h2.1v-2.2Z"/>
</svg>

</g> 



<svg xmlns="http://www.w3.org/2000/svg" id="yago" width="104" height="56" ><path   d="m38 7 7 6.7H32V46h34V33.7l7 6.6V7H38Zm27.7 25.9-19.9-19h19.9v19Zm-6.2 8.4H37.4V19.5h1.5v20.3h20.6v1.5ZM41.8 52.1l-.8-1.7h-.7l1.2 2.2V54h.6v-1.3l1.2-2.2h-.7l-.8 1.7Zm3-1.7h.2l1.3 3.5h-.6l-.3-.8H44l-.3.8h-.6l1.3-3.5h.4Zm-.6 2.2h1l-.5-1.5-.5 1.5Zm4.3-.6a9.5 9.5 0 0 1-.3-.4v-.9l.4-.3h.9a.8.8 0 0 1 .4 1l-.2.3-.3.2-.2.2.7.8a1.4 1.4 0 0 0 .2-.7h.5v.5a1.5 1.5 0 0 1-.3.6l.5.6H50l-.2-.2-.4.2a1.6 1.6 0 0 1-1.1 0 1 1 0 0 1-.4-.4 1 1 0 0 1 0-1l.2-.2.3-.3Zm.3.4h-.1l-.2.2a.6.6 0 0 0 0 .6c0 .1 0 .2.2.2l.3.1a1 1 0 0 0 .6-.2l-.8-1Zm.1-.7.2-.1.3-.2v-.5l-.4-.1a.4.4 0 0 0-.3.2.5.5 0 0 0 0 .4l.2.3Zm6.2 1h-.6v.5l-.3.2a1 1 0 0 1-.5 0h-.3a.7.7 0 0 1-.3-.2l-.1-.4v-1.3l.1-.4.3-.2h.8l.2.2.1.4h.6c0-.2 0-.4-.2-.6 0-.2-.2-.3-.4-.4l-.7-.2-.6.1-.5.4-.3.5V53c0 .2.2.4.3.5a1.3 1.3 0 0 0 1 .5c.3 0 .6 0 .8-.2.2 0 .3-.2.4-.4l.2-.6Zm3.4-.5v-.9l-.4-.5-.4-.4h-1.2l-.5.4-.3.5-.1.7v1l.4.5a1.3 1.3 0 0 0 1 .5l.7-.1.4-.4.3-.5.1-.8ZM58 52v.8l-.2.4-.3.2h-.7a.8.8 0 0 1-.3-.2l-.2-.4v-1.3l.2-.4.3-.2h.7l.3.2.2.4v.5Z" clip-rule="evenodd"/> 




</svg>


<svg xmlns="http://www.w3.org/2000/svg" id="here" width="104" height="56" ><g ><path d="M50.1136 5.93452h-.1366c-.2099-.01271-.4199-.0178-.6299-.02289h-.4553c-.3972 0-.802.01018-1.2042.03052-.0303-.00221-.0607-.00221-.091 0-3.6444.20648-7.2149 1.11736-10.5161 2.68277l-.4326.20852V30.9746l1.0119-.3433c.8879-.3052 1.834-.5798 2.813-.8341 2.6465-.6794 5.3639-1.0405 8.0952-1.0756v2.909c-.3618.0026-.7134.0128-1.065.0306h-.0835c-2.102.1153-4.1878.4355-6.2282.9561-2.5841.647-5.077 1.6184-7.4197 2.8913V7.11189c2.4331-1.41914 5.0537-2.48502 7.784-3.16593 2.3971-.61891 4.8613-.93665 7.3362-.94596h.4275c.511.01271 1.0094.0356 1.4774.0712 1.233.08658 2.4561.28143 3.6554.58233v2.86332c-1.1647-.27134-2.3489-.4499-3.5416-.53401-.0242-.00205-.0484-.00412-.0726-.00618-.2468-.02105-.4939-.04214-.7243-.04214Zm5.0392 2.92686c.6349.04832 1.2927.07121 1.958.07121 2.6017-.00952 5.1923-.34176 7.7131-.9892 2.5829-.64943 5.0747-1.62161 7.4172-2.89383V32.9402c-2.4344 1.4183-5.0558 2.4841-7.7865 3.1659-2.3975.6166-4.8615.9334-7.3362.9435-1.8751.0151-3.7447-.2053-5.5654-.6561V8.32229c.43.09917.8727.19072 1.323.267.7387.12461 1.5179.21615 2.2768.27209Zm14.1943.21615-1.0119.34075c-.931.31278-1.8695.59252-2.8131.84172-2.7472.706-5.5707 1.0681-8.4063 1.0782-.6602 0-1.2673-.0178-1.8542-.056l-.807-.0534v22.7769l.6931.061c.6426.056 1.3054.0839 1.9732.0839 2.2335-.0094 4.4572-.2973 6.6203-.8569 1.7811-.4468 3.514-1.0694 5.1733-1.8589l.4326-.2085V9.07753Z" clip-rule="evenodd"/><path d="M35.7371 45.2124c-.1454-.1509-.3208-.2694-.5147-.3478-.194-.0784-.4021-.115-.611-.1074-.2226-.003-.4436.0385-.6501.1221-.1894.0754-.3615.1887-.506.3331-.1428.1448-.254.318-.3263.5086-.0793.1997-.1189.4131-.1164.6281v3.794c-.009.2673.042.5333.1493.7781.0895.1944.2188.3677.3794.5086.1517.1277.3297.2197.5212.2696.1844.0518.3751.0783.5666.0788.2113.0021.4204-.0431.6122-.1322.1896-.083.3615-.2022.506-.351.1408-.1474.2532-.3198.3313-.5086.0811-.1913.1224-.3972.1215-.6052v-.4246h-.9917v.3382c.003.1155-.0168.2304-.0582.3382-.0323.0807-.0814.1536-.1442.2136-.0614.0496-.1318.0868-.2074.1093-.067.0223-.1369.0343-.2074.0356-.0886.0103-.1782-.003-.26-.0388-.0817-.0357-.1526-.0925-.2055-.1646-.0935-.1525-.1393-.3296-.1315-.5086v-3.5372c-.0062-.1961.0355-.3908.1214-.567.0515-.0801.1243-.144.2102-.1845.0859-.0405.1813-.0559.2755-.0444.0855-.003.1704.0148.2475.052s.1441.0927.1952.1616c.111.1457.169.3252.1644.5086v.328h.9816v-.3865c.0019-.227-.0393-.4523-.1215-.6637-.0732-.1988-.186-.3805-.3314-.534Zm5.8918-.0433c-.3162-.267-.7153-.4145-1.1282-.417-.202.0008-.4023.037-.592.1068-.1926.069-.3703.1743-.5236.3102-.1643.1477-.2954.3289-.3846.5315-.0999.2317-.149.4824-.1442.7349v3.6389c-.0068.256.0424.5103.1442.7451.0898.1956.221.3692.3846.5085.1516.1408.3296.2497.5236.3205.1897.0698.39.1059.592.1068.202-.0004.4024-.0366.5919-.1068.1974-.0718.3793-.1805.5363-.3205.1582-.1419.2856-.315.3744-.5085.1018-.2348.1511-.4891.1442-.7451v-3.6389c.0049-.2525-.0443-.5032-.1442-.7349-.0882-.2005-.2155-.3812-.3744-.5315Zm-.4629 4.9053c.0083.097-.0051.1946-.0392.2857-.0342.0911-.0882.1733-.1581.2407-.131.1098-.2962.17-.4668.17-.1706 0-.3357-.0602-.4667-.17-.07-.0674-.124-.1496-.1581-.2407-.0342-.0911-.0476-.1887-.0392-.2857v-3.6389c-.0084-.097.005-.1946.0392-.2857.0341-.0911.0881-.1734.1581-.2407.131-.1098.2961-.17.4667-.17.1706 0 .3358.0602.4668.17.0699.0673.1239.1496.1581.2407.0341.0911.0475.1887.0392.2857v3.6389Zm8.2013 1.625v-6.8887h-.9537l-1.2522 3.6465h-.0177l-1.2624-3.6465h-.9436v6.8887h.9841v-4.1907h.0177l.9638 2.9625h.4908l.9714-2.9625h.0177v4.1907h.9841Zm5.5908-6.4057c-.1516-.17-.3428-.2994-.5566-.3764-.2303-.0749-.4713-.111-.7134-.1068H52.226v6.8888h.9815v-2.6904h.5059c.3063.0139.611-.0509.8854-.1882.2232-.1239.4093-.3057.5389-.5264.1135-.1832.19-.3872.2251-.6001.0386-.2592.0564-.5212.0531-.7832.0096-.3308-.0227-.6615-.0961-.9841-.0655-.2384-.1899-.4563-.3617-.6332Zm-.506 2.1004c-.0042.1247-.0353.2471-.0911.3586-.0561.1059-.1448.1907-.2529.2415-.1454.0651-.304.0947-.463.0865h-.4477v-2.342h.5059c.1524-.0075.3042.0222.4427.0864.1015.0583.1821.1473.2302.2543.0537.121.0829.2516.086.384v.4577c0 .1602.0101.3255 0 .473h-.0101Zm5.1556-2.5834h-.8045l-1.5178 6.8887h.9815l.2884-1.48h1.3382l.2884 1.48h.9816l-1.5558-6.8887Zm-.9057 4.4704.4832-2.4971h.0177l.4807 2.4971h-.9816Zm7.2477-.3204h-.0177l-1.4824-4.15h-.9436v6.8887h.9815V47.557h.0203l1.5001 4.1424h.9233v-6.8887h-.9815v4.15Zm5.9979-4.15-.7893 2.7387h-.0202l-.7893-2.7387h-1.0397l1.3483 3.9771v2.9116h.9816v-2.9116l1.3483-3.9771h-1.0397ZM33 53.6445h.4731v1.3274h.3212v-1.3274h.4706v-.2721H33v.2721Zm3.9767-.2721-.6198 1.5995h.3415l.1316-.3636h.6375l.1366.3636h.3491l-.635-1.5995h-.3415Zm-.0506.9663.2176-.5925.2175.5925h-.4351Zm3.9818.0434h.3694v.206c-.1079.0865-.2415.1339-.3795.1348-.0645.0036-.1289-.0084-.1879-.0349-.059-.0266-.1108-.0669-.1511-.1177-.0848-.1218-.1266-.2686-.1189-.417 0-.356.1543-.534.4604-.534.0806-.0081.1614.0132.2277.0598.0664.0466.1139.1156.1341.1944l.3162-.061c-.0683-.3128-.2934-.4704-.678-.4704-.2056-.0055-.4056.0682-.559.206-.0806.0795-.143.1758-.1827.2821-.0398.1063-.056.22-.0475.3332-.0094.2189.0638.4332.2049.6002.0783.0808.1732.1435.278.1839.1048.0404.2171.0574.3291.05.2503.007.4934-.0842.678-.2543v-.6306h-.6932v.2695Zm4.0147-1.0097h-.3238v1.5995h1.1206v-.2721h-.7968v-1.3274Zm3.3949 0h-.3238v1.5995h.3238v-1.5995Zm3.319 1.0681-.6552-1.0681h-.3137v1.5995h.301v-1.0451l.6426 1.0451h.3213v-1.5995h-.296v1.0681Zm3.0003-.173h.7969v-.2721h-.7969v-.3509h.8576v-.2721H54.313v1.5995h1.2143v-.2721h-.8905v-.4323Zm7.2754-.2644h-.6299v-.6307h-.3212v1.5995h.3212v-.6993h.6299v.6993h.3213v-1.5995h-.3213v.6307Zm3.018.2644h.7994v-.2721h-.7994v-.3509h.8601v-.2721h-1.1814v1.5995h1.2117v-.2721h-.8904v-.4323Zm4.0931.0001c.2782-.0432.4199-.1907.4199-.445.0081-.068-.0022-.137-.0298-.1996-.0276-.0627-.0715-.1167-.1271-.1564-.1448-.0728-.3064-.1052-.468-.0941h-.6779v1.5995h.3213v-.6688h.0632c.0685-.0042.137.008.1998.0356.047.029.0861.0691.1139.117l.3491.5086h.3845l-.1948-.3128c-.0861-.1544-.2075-.286-.3541-.384Zm-.3239-.2212h-.2377v-.4018h.2529c.1102-.0089.2211.004.3264.0381.0234.0207.0418.0464.054.0752.0122.0288.0177.06.0163.0913-.0015.0312-.0099.0618-.0247.0893-.0148.0275-.0356.0514-.0608.0697-.1056.0324-.2162.0453-.3264.0382Zm3.4102.2211h.7968v-.2721h-.7968v-.3509h.8601v-.2721h-1.1839v1.5995H73v-.2721h-.8904v-.4323Z"/> 
</g>


</svg>


<!--COMPANY TAGLINE HERE-->


<svg xmlns="http://www.w3.org/2000/svg" id="company" width="104" height="56" ><g ><path d="M36.8098 49.2233c.0161.0003.032.0035.0467.0091.0147.0057.0279.0138.0389.0239l.2208.2076c-.1714.168-.3832.3023-.6211.3939-.2784.0999-.5786.1481-.8805.1415-.2837.005-.5656-.04-.8281-.1321-.2368-.0846-.4495-.2117-.6239-.3727-.1778-.167-.3149-.3626-.403-.5755-.0964-.2373-.1441-.4871-.1407-.7383-.004-.2528.0475-.5041.1518-.7407.0964-.2142.2419-.4099.4278-.5755.1885-.1625.414-.2901.6625-.3751.2719-.09.5614-.1349.853-.1321.2708-.0056.5402.0353.7922.1203.2186.0811.4193.1936.5935.3326l-.185.2217c-.0128.0156-.0286.0292-.0469.0401-.0218.0128-.0482.0187-.0745.0166-.0287-.0017-.0563-.0099-.0801-.0236l-.0994-.059-.138-.0755c-.0596-.028-.1214-.0524-.1849-.0731-.0819-.025-.1659-.0448-.2512-.059-.1083-.017-.2184-.0249-.3285-.0236-.21-.0022-.4183.0315-.6128.0991-.1814.0626-.3451.1575-.4803.2783-.1376.1285-.2437.2793-.3119.4435-.0778.1878-.1161.3858-.1132.585-.0033.2022.035.4034.1132.5944.0673.1627.1714.3126.3064.4411.1264.1198.2831.2133.4582.2736.1802.0638.3736.0959.5686.0944.1127.0014.2253-.0049.3368-.0189.182-.019.3566-.073.5107-.1581.0772-.0435.1502-.0924.218-.1462.0284-.0231.0657-.0366.1049-.0377Zm6.3763-1.043c.0035.2502-.0471.4989-.149.7335-.09.2128-.2317.4069-.4158.5696-.1842.1626-.4065.29-.6525.3739-.5404.1761-1.1378.1761-1.6782 0-.2444-.0852-.4653-.2129-.6487-.3751-.184-.1655-.3268-.3613-.4196-.5755-.1988-.475-.1988-.9943 0-1.4694.0942-.2142.2367-.4106.4196-.5778.1849-.1571.4057-.2799.6487-.3609.5397-.1793 1.1385-.1793 1.6782 0 .2452.0851.4671.2128.6515.375.1817.164.3234.3572.4168.5684.1022.2362.1528.4865.149.7383Zm-.5796 0c.0043-.2002-.0312-.3996-.1049-.5897-.0619-.1628-.1624-.3129-.2954-.441-.1294-.1212-.2888-.2163-.4665-.2783-.3927-.129-.8274-.129-1.22 0-.1778.062-.3371.1571-.4665.2783-.1348.1273-.2364.2776-.2981.441-.1405.384-.1405.7954 0 1.1793.0623.1632.1638.3134.2981.4411.1296.1205.2889.2147.4665.276.3933.1256.8266.1256 1.22 0 .1776-.0613.3369-.1555.4665-.276.1324-.1284.2329-.2785.2954-.4411.0741-.19.1095-.3894.1049-.5896Zm4.93.6184.0579.1321c.0221-.0472.0414-.0896.0635-.1321.0211-.0443.045-.0876.0718-.1297l1.4105-2.1909c.0276-.0377.0525-.0613.0801-.0684.0375-.0097.0767-.0137.1159-.0118h.4168v3.5635h-.4941v-2.731c-.0027-.0408-.0027-.0818 0-.1226l-1.4188 2.2215c-.018.0333-.0468.0615-.0831.0811-.0362.0197-.0783.03-.1212.0298h-.08c-.043.0005-.0852-.0097-.1215-.0294s-.0651-.048-.0828-.0815l-1.4602-2.2356v2.8606h-.4775v-3.5564h.4168c.0391-.0019.0784.0021.1159.0118.0342.0145.0615.0387.0773.0684l1.4409 2.1933c.0283.0405.0523.0831.0718.1273Zm5.3082-.177v1.3347h-.5521v-3.5586h1.2311c.2324-.0038.4641.0224.6873.0778.1787.0433.3444.1189.4859.2217.1226.0964.2171.2159.276.349.0652.1452.097.2997.0938.4552.0025.1561-.0323.3109-.1021.4551-.0663.1366-.1683.2584-.2981.3561-.1416.1071-.3081.1875-.4886.2359-.2149.0586-.4397.0865-.6652.0825l-.668-.0094Zm0-.3821h.668c.1451.0016.2895-.0167.4278-.0542.1141-.0328.2193-.085.3092-.1533.0829-.0653.1471-.1459.1877-.2358.0452-.0951.0677-.1969.0662-.2995.0065-.099-.0124-.1979-.0553-.2899-.0429-.0921-.1088-.175-.1931-.2431-.2109-.1407-.4758-.2088-.7425-.191h-.668v1.4668Zm7.4198 1.7217h-.4362c-.0437.0014-.0867-.0103-.1214-.0331-.0313-.0222-.0559-.0505-.0718-.0825l-.3754-.8609h-1.8853l-.3892.8609c-.0143.0315-.0381.0591-.069.0802-.0351.0241-.0792.0367-.1242.0354h-.4362l1.6562-3.5638h.5742l1.6783 3.5638Zm-2.7328-1.3232h1.5569l-.657-1.4505c-.0502-.1091-.0917-.221-.1242-.3349l-.0635.1863c-.0193.0566-.0414.1085-.0607.1509l-.6515 1.4482Zm5.1178-2.2241c.033.0155.0614.0373.0828.0637l2.4153 2.6864v-2.7666h.4941v3.5638h-.276c-.0392.001-.0781-.0063-.1132-.0212-.0341-.017-.0641-.0395-.0883-.0661l-2.4125-2.684c.0026.0409.0026.0818 0 .1226v2.6487h-.4941v-3.5638h.2926c.0341-.0008.068.0049.0993.0165Zm7.0609 2.1298v1.4151h-.5521v-1.4151l-1.5265-2.1463h.4941c.0426-.0021.0847.0087.1187.0307.0301.0229.0553.05.0746.0802l.9551 1.3844c.0386.059.0717.1132.0993.1651s.0497.1014.069.151l.0718-.1533c.0268-.0561.0582-.1105.0939-.1628l.9412-1.3939c.0198-.0278.044-.0532.0718-.0754.0328-.0245.0753-.0371.1187-.0354h.4996l-1.5292 2.1557ZM47.2632 40.417c.2401.0259.483.0472.7287.066 3.7246-1.4235 6.8754-3.7535 9.0587-6.6986 2.1832-2.9451 3.3021-6.3747 3.2166-9.8601l-4.1046-3.5071c.8346 3.7109.4442 7.547-1.1275 11.0791-1.5717 3.5321-4.2627 6.6208-7.7719 8.9207Z"/><path d="m45.7975 40.2539.1104.0189c3.7499-2.2917 6.6089-5.4919 8.2072-9.1867 1.5984-3.6949 1.8625-7.7144.7584-11.5389l-5.8464-4.9951c2.3647 4.1059 3.3165 8.7009 2.7448 13.2508-.5717 4.5499-2.6435 8.8676-5.9744 12.451Zm19.8276-12.2115c-.9933 3.8296-3.4056 7.2834-6.8788 9.8487-1.0144.7533-2.1085 1.4244-3.2683 2.0046 2.8282-.7102 5.4277-1.9659 7.5981-3.6702 2.1704-1.7042 3.8537-3.8116 4.9201-6.1596l-2.3711-2.0235Z"/><path d="m64.6948 27.4784-3.3759-2.8844c-.0645 3.2885-1.1587 6.5023-3.1689 9.3072-2.0101 2.805-4.8629 5.0988-8.2617 6.643h.0166c.7574-.0003 1.5141-.0389 2.2662-.1156 3.1764-1.1077 5.9824-2.87 8.1677-5.1297 2.1852-2.2597 3.6818-4.9464 4.356-7.8205ZM46.2861 12.4457 42.2587 9c-3.6003 1.1887-6.6967 3.2784-8.884 5.9955-2.1872 2.7172-3.3635 5.9353-3.3747 9.233.0135 3.644 1.449 7.18 4.0793 10.0484 2.6303 2.8685 6.3052 4.9055 10.4429 5.7887 3.6938-3.8451 5.8564-8.5963 6.1736-13.5633.3172-4.967-1.2275-9.891-4.4097-14.0566ZM74 26.9478c-.0146-4.3233-2.0311-8.466-5.6092-11.5231-3.5781-3.0571-8.4268-4.78-13.4869-4.7925-2.3382-.0021-4.6566.3666-6.8374 1.0872l24.6582 21.0679C73.569 30.925 74.0015 28.945 74 26.9478Z"/></g> 

<Svg>





<svg xmlns="http://www.w3.org/2000/svg" id="foster" width="104" height="56" ><path  d="M24.0782 21.5179h-.0029c-2.3856 0-4.3196 1.7436-4.3196 3.8945v.0025c0 2.1509 1.934 3.8945 4.3196 3.8945h.0029c2.3856 0 4.3196-1.7436 4.3196-3.8945v-.0025c0-2.1509-1.934-3.8945-4.3196-3.8945Zm31.8832-1.2449c-.0068-2.9875-1.3259-5.8509-3.6686-7.9636C49.9501 10.1967 46.7745 9.00678 43.461 9c-3.3144.00543-6.4914 1.1948-8.8354 3.3076-2.3439 2.1129-3.6638 4.977-3.6706 7.9654v16.4742s25.0035-2.5108 25.0064-16.4717v-.0025ZM11 42.1543c.006 2.0787.9243 4.0707 2.5543 5.5408 1.63 1.4701 3.8392 2.2988 6.1447 2.3049 2.305-.0061 4.5137-.8344 6.1436-2.304 1.6299-1.4695 2.5486-3.4609 2.5554-5.5392v-11.463S11 32.4421 11 42.1543Zm8.699 2.0538c-.4506 0-.891-.1204-1.2656-.3461-.3746-.2257-.6666-.5465-.839-.9218-.1724-.3752-.2175-.7882-.1296-1.1866.0879-.3984.3048-.7644.6234-1.0516.3186-.2873.7245-.4829 1.1664-.5621.4419-.0793.8999-.0386 1.3161.1169.4163.1554.772.4187 1.0223.7564.2503.3378.3839.7349.3839 1.1411.0012.2703-.0569.5382-.1709.7883-.114.2501-.2816.4774-.4932.6689-.2117.1916-.4632.3436-.7401.4473-.2769.1036-.5739.157-.8737.157v-.0077Zm15.9099-3.6931v4.2656H34.73V40.515h.8789Zm1.6992 1.8222v.6856h-1.9394v-.6856h1.9394Zm.2051-1.8222v.6884h-2.1445v-.6884h2.1445Zm4.0137 2.0332v.2021c0 .3242-.044.6152-.1319.8731-.0879.2578-.2119.4775-.3721.6591-.1601.1797-.3515.3174-.5742.4131-.2207.0957-.4658.1436-.7353.1436-.2676 0-.5127-.0479-.7354-.1436-.2207-.0957-.4121-.2334-.5742-.4131-.1621-.1816-.2881-.4013-.3779-.6591-.0879-.2579-.1319-.5489-.1319-.8731v-.2021c0-.3262.044-.6172.1319-.8731.0879-.2578.2119-.4775.372-.6592.1622-.1816.3536-.3203.5743-.416.2226-.0957.4677-.1435.7353-.1435.2696 0 .5147.0478.7354.1435.2226.0957.414.2344.5742.416.1621.1817.2871.4014.375.6592.0898.2559.1348.5469.1348.8731Zm-.8877.2021v-.208c0-.2266-.0205-.4258-.0616-.5977-.041-.1718-.1015-.3164-.1816-.4336-.0801-.1171-.1777-.205-.293-.2636-.1152-.0606-.247-.0908-.3955-.0908-.1484 0-.2803.0302-.3955.0908-.1133.0586-.2099.1465-.29.2636-.0782.1172-.1377.2618-.1787.4336-.0411.1719-.0616.3711-.0616.5977v.208c0 .2246.0205.4238.0616.5977.041.1718.1015.3173.1816.4365.0801.1172.1777.206.293.2666.1152.0605.247.0908.3955.0908.1484 0 .2803-.0303.3955-.0908.1152-.0606.2119-.1494.29-.2666.0782-.1192.1377-.2647.1787-.4365.0411-.1739.0616-.3731.0616-.5977Zm3.7412.9141c0-.0762-.0117-.1446-.0352-.2051-.0215-.0625-.0625-.1192-.123-.1699-.0606-.0528-.1455-.1045-.2549-.1553-.1094-.0508-.251-.1035-.4248-.1582-.1934-.0625-.377-.1328-.5508-.2109-.1719-.0782-.3242-.169-.457-.2725-.1309-.1055-.2344-.2275-.3106-.3662-.0742-.1387-.1113-.2998-.1113-.4834 0-.1778.0391-.3389.1172-.4834.0781-.1465.1875-.2715.3281-.375.1406-.1055.3066-.1865.4981-.2432.1933-.0566.4052-.0849.6357-.0849.3144 0 .5889.0566.8232.1699.2344.1133.4161.2685.545.4658.1308.1973.1962.4229.1962.6768h-.873c0-.125-.0264-.2344-.0791-.3282-.0508-.0957-.1289-.1709-.2344-.2256-.1035-.0546-.2344-.082-.3926-.082-.1523 0-.2793.0235-.3808.0703-.1016.045-.1777.1065-.2285.1846-.0508.0762-.0762.1621-.0762.2578 0 .0723.0176.1377.0527.1963.0371.0586.0918.1133.1641.1641.0723.0507.1611.0986.2666.1435.1055.0449.2275.0889.3662.1319.2324.0703.4365.1494.6123.2373.1777.0879.3262.1865.4453.2959.1192.1093.209.2334.2696.372.0605.1387.0908.2959.0908.4717 0 .1856-.0362.3516-.1084.4981-.0723.1464-.1768.2705-.3135.372-.1367.1016-.2998.1787-.4893.2315-.1894.0527-.4013.0791-.6357.0791-.2109 0-.4189-.0274-.624-.0821-.2051-.0566-.3916-.1416-.5596-.2548-.166-.1133-.2988-.2579-.3984-.4336-.0996-.1758-.1494-.3838-.1494-.6241h.8818c0 .1329.0205.2452.0615.337.041.0918.0986.166.1729.2226.0761.0567.166.0977.2695.1231.1055.0253.2207.038.3457.038.1523 0 .2773-.0214.375-.0644.0996-.043.1729-.1025.2197-.1787.0489-.0762.0733-.1621.0733-.2578Zm3.3838-3.1494v4.2656h-.876V40.515h.876Zm1.3125 0v.6884h-3.4805v-.6884h3.4805Zm3.3632 3.58v.6856h-2.2705v-.6856h2.2705Zm-1.9834-3.58v4.2656h-.8789V40.515h.8789Zm1.6875 1.7373v.6679h-1.9746v-.6679h1.9746Zm.293-1.7373v.6884h-2.2676v-.6884h2.2676Zm.5156 0h1.5909c.3261 0 .6064.0488.8408.1464.2363.0977.4179.2422.5449.4336.127.1914.1904.4268.1904.7061 0 .2285-.039.4248-.1172.5889-.0761.1621-.1845.2978-.3252.4072-.1386.1074-.3017.1933-.4892.2578l-.2783.1465h-1.3828l-.0059-.6856h1.0283c.1543 0 .2822-.0273.3838-.082.1016-.0547.1777-.1309.2285-.2285.0528-.0977.0791-.211.0791-.3399 0-.1367-.0254-.2548-.0761-.3545-.0508-.0996-.128-.1757-.2315-.2285-.1035-.0527-.2334-.0791-.3896-.0791h-.712v3.5772h-.8789V40.515Zm2.3848 4.2656-.9727-1.9014.9288-.0058.9843 1.8662v.041h-.9404Zm4.6143-1.5205h-1.087v-.6856h1.087c.1679 0 .3046-.0273.4101-.082.1055-.0566.1826-.1348.2315-.2344.0488-.0996.0732-.2119.0732-.3369 0-.1269-.0244-.2451-.0732-.3545-.0489-.1094-.126-.1973-.2315-.2637-.1055-.0664-.2422-.0996-.4101-.0996h-.7823v3.5772h-.8789V40.515h1.6612c.3339 0 .6201.0605.8584.1816.2402.1191.4238.2842.5507.4951.127.2109.1905.4522.1905.7236 0 .2754-.0635.5137-.1905.7149-.1269.2012-.3105.3564-.5507.4658-.2383.1094-.5245.1641-.8584.1641Zm5.0683.8349v.6856h-2.2705v-.6856H65.02Zm-1.9834-3.58v4.2656h-.8789V40.515h.8789Zm1.6875 1.7373v.6679h-1.9746v-.6679h1.9746Zm.293-1.7373v.6884h-2.2676v-.6884h2.2676Zm2.4814 0v4.2656h-.8759V40.515h.8759Zm1.3125 0v.6884h-3.4804v-.6884h3.4804Zm3.3633 3.58v.6856h-2.2705v-.6856h2.2705Zm-1.9834-3.58v4.2656h-.8789V40.515h.8789Zm1.6875 1.7373v.6679h-1.9746v-.6679h1.9746Zm.293-1.7373v.6884h-2.2676v-.6884h2.2676Zm.5156 0h1.5908c.3262 0 .6065.0488.8409.1464.2363.0977.4179.2422.5449.4336.1269.1914.1904.4268.1904.7061 0 .2285-.0391.4248-.1172.5889-.0762.1621-.1846.2978-.3252.4072-.1387.1074-.3017.1933-.4892.2578l-.2784.1465h-1.3828l-.0058-.6856h1.0283c.1543 0 .2822-.0273.3838-.082.1015-.0547.1777-.1309.2285-.2285.0527-.0977.0791-.211.0791-.3399 0-.1367-.0254-.2548-.0762-.3545-.0508-.0996-.1279-.1757-.2314-.2285-.1035-.0527-.2334-.0791-.3897-.0791h-.7119v3.5772h-.8789V40.515Zm2.3848 4.2656-.9727-1.9014.9287-.0058.9844 1.8662v.041h-.9404Zm3.6797-1.1162c0-.0762-.0118-.1446-.0352-.2051-.0215-.0625-.0625-.1192-.123-.1699-.0606-.0528-.1455-.1045-.2549-.1553-.1094-.0508-.251-.1035-.4248-.1582-.1934-.0625-.377-.1328-.5508-.2109-.1719-.0782-.3242-.169-.457-.2725-.1309-.1055-.2344-.2275-.3106-.3662-.0742-.1387-.1113-.2998-.1113-.4834 0-.1778.039-.3389.1172-.4834.0781-.1465.1875-.2715.3281-.375.1406-.1055.3066-.1865.498-.2432.1934-.0566.4053-.0849.6358-.0849.3144 0 .5889.0566.8232.1699.2344.1133.416.2685.545.4658.1308.1973.1962.4229.1962.6768h-.873c0-.125-.0264-.2344-.0791-.3282-.0508-.0957-.1289-.1709-.2344-.2256-.1035-.0546-.2344-.082-.3926-.082-.1523 0-.2793.0235-.3808.0703-.1016.045-.1778.1065-.2285.1846-.0508.0762-.0762.1621-.0762.2578 0 .0723.0176.1377.0527.1963.0371.0586.0918.1133.1641.1641.0723.0507.1611.0986.2666.1435.1055.0449.2275.0889.3662.1319.2324.0703.4365.1494.6123.2373.1777.0879.3262.1865.4453.2959.1192.1093.209.2334.2696.372.0605.1387.0908.2959.0908.4717 0 .1856-.0362.3516-.1084.4981-.0723.1464-.1768.2705-.3135.372-.1367.1016-.2998.1787-.4893.2315-.1894.0527-.4013.0791-.6357.0791-.2109 0-.4189-.0274-.624-.0821-.2051-.0566-.3916-.1416-.5596-.2548-.166-.1133-.2988-.2579-.3984-.4336-.0996-.1758-.1494-.3838-.1494-.6241h.8818c0 .1329.0205.2452.0615.337.041.0918.0986.166.1729.2226.0761.0567.166.0977.2695.1231.1055.0253.2207.038.3457.038.1523 0 .2773-.0214.375-.0644.0996-.043.1728-.1025.2197-.1787.0489-.0762.0733-.1621.0733-.2578Z"/></g>
</svg>


<svg xmlns="http://www.w3.org/2000/svg" id="brand" width="104" height="56" ><g ><path d="M26.7919 44.373c.2455.2735.3762.6161.3694.9677.0125.2293-.0325.4582-.1315.6698-.0991.2116-.2498.4004-.4409.5525-.4769.3242-1.0676.4827-1.6639.4463H22v-6.1324h2.8651c.5656-.0338 1.1267.1102 1.5874.4075.185.1394.3315.3156.428.5147.0964.1991.1401.4157.1277.6326.0168.3383-.1012.6709-.3328.9377-.2223.2437-.5295.4126-.8718.4794.388.0637.7383.2495.9883.5242Zm-3.4309-.9257h1.2246c.2783.0186.5548-.0538.7787-.2037.0919-.075.1635-.1681.2091-.272.0456-.1039.064-.2158.0538-.3271.0086-.111-.0102-.2223-.055-.3259-.0449-.1036-.1148-.1969-.2046-.2733-.2306-.1542-.5156-.2276-.8019-.2067H23.361v1.6087Zm2.1231 2.3517c.0983-.0768.1755-.1729.2258-.281.0502-.1081.072-.2252.0637-.3421.0075-.1183-.0153-.2365-.0667-.3456-.0513-.1091-.1298-.2061-.2295-.2835-.2395-.1599-.5342-.2384-.8319-.2217H23.361v1.6866h1.3012c.2928.0152.5827-.0598.8219-.2127Zm7.1646 1.2103-1.594-2.3966h-.599v2.3966h-1.371v-6.1324h2.5956c.6543-.0411 1.3011.1455 1.807.5213.3628.3328.5816.7714.617 1.2366.0354.4653-.115.9266-.424 1.3009-.3203.3302-.7577.5504-1.2379.6231l1.6971 2.4505h-1.4908Zm-2.193-3.2324h1.1215c.7786 0 1.168-.3096 1.168-.9287.0079-.1265-.0134-.253-.0627-.3716-.0492-.1186-.1254-.2267-.2235-.3175-.2461-.1842-.563-.2736-.8818-.2486h-1.1348l.0133 1.8664Zm9.6869 1.9983h-2.732l-.4826 1.2342h-1.4375l2.5091-6.0635h1.554l2.4991 6.0635h-1.4376l-.4725-1.2342Zm-.366-.9287-.9984-2.5884-.9983 2.5884h1.9967Zm9.7468 2.1629h-1.361l-3.0515-4.1702v4.1702h-1.3577V40.877h1.3577l3.0515 4.1941V40.877h1.361v6.1324Zm7.7669-1.4679c-.2814.463-.7102.8396-1.2313 1.0814-.5924.2694-1.2499.4022-1.9134.3865H51.723V40.877h2.4226c.6623-.0156 1.319.114 1.9134.3775.521.2363.9502.6092 1.2313 1.0695.2801.4987.4261 1.0498.4261 1.6087s-.146 1.11-.4261 1.6088Zm-1.5574-.1468c.3884-.4074.602-.9266.602-1.4635s-.2136-1.056-.602-1.4634c-.4695-.369-1.0818-.5564-1.7038-.5213h-.945v3.9694h.945c.622.0351 1.2343-.1522 1.7038-.5212ZM40.9945 6.76672S58.5614 12.7374 58.1887 21.3773v14.6135s-17.5536-5.9736-17.1875-14.6135l-.0067-14.61058ZM73.8389 32.5694c3.3176-2.0555 7.1552-3.3286 11.1611-3.7028V24.292c-4.6158 1.6015-8.5314 4.5055-11.1611 8.2774Z"/><path d="M71.8456 33.9478c2.7155-4.9225 7.423-8.721 13.1544-10.6142V10.1521s-25.0177 8.5051-24.4886 20.8088v20.8059s1.1148-.3805 2.8685-1.0935c0-.665 0-1.3361.0799-2.0102.5178-5.712 3.5341-11.005 8.3858-14.7153Z"/><path d="M69.4663 41.6769c.1315-1.4429.4247-2.8702.8752-4.26-3.021 3.2042-4.8505 7.1802-5.2311 11.369-.0366.3955-.0566.7909-.0666 1.1984 1.421-.6142 3.0748-1.3811 4.8119-2.2828-.4433-1.9818-.5744-4.0099-.3894-6.0246Zm.9949.075c-.1665 1.8227-.0624 3.6573.3095 5.4553 6.8351-3.6818 14.5154-9.3709 14.2193-16.2462v-.5992c-4.8834.4919-9.4523 2.4138-13.0047 5.4703-.8317 1.8942-1.3454 3.8893-1.5241 5.9198Z"/></g>
</svg> 

<!--FOOSTER PETERS-->


  <svg xmlns="http://www.w3.org/2000/svg" id="" width="104" height="56" ><g ><path d="M53.5293 27.4433c-.444-.5909-.6564-1.2891-.606-1.992v-2.8881c0-.8853.2009-1.5581.6026-2.0184.4018-.4603 1.0918-.6894 2.0701-.6875.9193 0 1.5719.1959 1.9577.5876.4209.4998.6257 1.1111.5788 1.7276v.6787H56.488v-.6875c.0059-.2251-.0101-.4501-.0476-.6728-.0237-.1523-.1065-.2932-.2349-.3996-.1689-.1147-.3816-.1703-.5959-.1557-.2253-.0145-.4487.0441-.6264.1645-.1433.1179-.2388.2724-.2724.4407-.0472.2357-.0688.4747-.0647.7139v3.5051c-.0259.3381.0466.6765.2111.9842.0818.1042.1954.1867.3282.2386.1328.0518.2796.071.4242.0552.2107.015.4197-.042.5822-.1586.134-.1148.2202-.2645.2452-.426.0384-.2326.0555-.4674.051-.7022v-.711h1.6445v.6493c.0462.6426-.1536 1.2806-.5686 1.8157-.3779.4289-1.0214.6434-1.9679.6434-.9465 0-1.6615-.2291-2.0667-.7051Zm6.847.0294c-.4153-.4495-.623-1.1047-.623-1.9714v-3.038c0-.8579.2077-1.5072.623-1.9479.4154-.4407 1.11-.66 2.0837-.6581.9669 0 1.6581.2194 2.0734.6581.4154.4407.6265 1.09.6265 1.9479v3.038c0 .8579-.2111 1.516-.6333 1.9684-.4222.4525-1.1099.6787-2.0666.6787-.9567 0-1.6649-.2291-2.0837-.6757Zm2.8497-.7287c.1488-.2815.2165-.59.1975-.899v-3.7195c.0191-.3031-.0475-.6056-.1941-.8814-.0834-.1064-.1998-.1903-.3358-.2422-.1361-.052-.2863-.0699-.4336-.0516-.1477-.0178-.2983.0003-.4348.0522s-.2535.1355-.3381.2416c-.1497.275-.2176.578-.1974.8814v3.7371c-.0207.3092.0471.6179.1974.8991.0959.0947.2142.1707.3469.2228.1327.052.2768.0789.4226.0789.1458 0 .2899-.0269.4226-.0789.1327-.0521.251-.1281.3468-.2228v-.0177Zm3.9118-6.798h1.7705l1.3312 5.6052 1.3619-5.6052h1.7228l.1736 8.0905h-1.2734l-.1361-5.6228-1.3143 5.6228h-1.0214l-1.3619-5.6434-.1259 5.6434h-1.287l.16-8.0905Zm8.3451 0h2.7577c1.5889 0 2.3833.7658 2.3833 2.2973 0 1.4669-.8364 2.1994-2.5092 2.1974h-.9397v3.5958h-1.7023l.0102-8.0905Zm2.356 3.4577c.1682.0184.339.0051.5007-.039.1616-.0441.3103-.118.4356-.2166.1952-.2732.2813-.5941.2451-.9136.0089-.2468-.0185-.4936-.0817-.7344-.0243-.0805-.0669-.1559-.1253-.222-.0585-.0661-.1316-.1214-.2152-.1629-.2363-.0978-.4975-.1422-.7592-.1292h-.6605v2.4177h.6605Zm5.2398-3.4577h1.8283l1.876 8.0905h-1.5866l-.3711-1.8655h-1.6308l-.3813 1.8655h-1.6104l1.8759-8.0905Zm1.5628 5.2879-.6367-3.396-.6367 3.396h1.2734Zm3.6566-5.2879h1.1916l2.2812 4.6152V19.946h1.4129v8.0905h-1.1337l-2.2948-4.8179v4.8179h-1.4606l.0034-8.0905Zm8.1951 5.0056-1.8964-4.9943h1.5968l1.1576 3.2081 1.0861-3.2081H100l-1.8726 4.9943v3.0847h-1.6342v-3.0847Zm-40.3353 6.622v.4231h-1.3891v3.2875h-.5822v-3.2875h-1.396v-.4231h3.3673Zm4.3544 3.7108h-.4494c-.0456.0025-.0907-.0101-.126-.0352-.034-.0215-.06-.0511-.0749-.0852l-.4017-.8813h-1.9271l-.4018.8813c-.0114.0369-.0323.071-.0612.0999-.0357.0246-.0805.0371-.126.0352h-.4494l1.7023-3.7104h.5924l1.7228 3.6957Zm-2.8191-1.3778h1.6071l-.681-1.51c-.0502-.1142-.0923-.2309-.126-.3496-.0238.0705-.0442.1381-.0647.1969l-.0612.1557-.6742 1.507Zm5.754 1.0136c.1066.0048.2134.0048.32 0 .0921-.0082.1832-.023.2724-.0441.0834-.0177.1653-.0402.2452-.0676.0749-.0264.1498-.0587.2281-.0911v-.8344h-.681c-.0168.0008-.0337-.0014-.0495-.0064-.0158-.0051-.0302-.0129-.0424-.023-.0112-.0083-.02-.0187-.0259-.0304-.0059-.0117-.0087-.0244-.0081-.0372v-.285h1.321v1.4221c-.1078.0666-.2217.1255-.3405.1763-.1214.0517-.2479.094-.3779.1263-.1392.0354-.2816.0609-.4256.0764-.1651.0158-.331.0237-.4971.0235-.2936.0022-.585-.0447-.858-.1381-.2549-.0884-.4865-.2203-.6809-.3878-.1896-.1692-.3388-.3688-.4392-.5876-.1073-.246-.1604-.5071-.1566-.7698-.0036-.2645.0483-.5272.1532-.7757.0979-.2199.2474-.42.4392-.5876.1943-.167.426-.2979.6809-.3849.2916-.0947.601-.1415.9125-.1381.1585-.0002.3167.0106.4732.0323.1384.0194.2742.0509.4052.094.1191.0386.2332.0878.3405.1469.1043.058.2034.1228.2962.1939l-.1634.2292c-.0128.0209-.0319.0385-.0553.0509-.0233.0124-.0501.0192-.0775.0196-.0377-.001-.0743-.0112-.1056-.0294-.051-.0235-.1055-.0528-.1668-.0881-.0724-.0392-.1487-.0726-.2281-.0999-.1015-.0351-.2063-.0627-.3133-.0823-.1426-.0226-.2874-.0335-.4324-.0323-.2246-.0021-.4476.0328-.6571.1028-.1894.0656-.3602.1659-.5004.2939-.1411.1334-.2489.2904-.3167.4613-.1521.4018-.1521.835 0 1.2369.0745.1745.1905.3337.3405.4672.1396.1273.3091.2275.4971.2938.2165.0641.4459.0892.6741.0735Zm5.4272-.0591h1.859v.4231h-2.4276v-3.7106h.5822l-.0136 3.2875Zm3.7928.4231h-.5822v-3.7106h.5822v3.7106Zm2.1653-3.6929c.0346.017.0648.04.0886.0676l2.4887 2.797c-.0033-.044-.0033-.0882 0-.1322V31.559h.5073v3.7255h-.2928c-.0433.003-.0869-.0041-.1259-.0206-.0354-.0185-.0665-.0424-.092-.0705l-2.4853-2.7941v2.8852h-.4869v-3.7108h.303c.0329 0 .0653.006.0953.0176Zm7.3712-.0177v.4084h-2.0632v1.2251h1.6717v.3937h-1.6717v1.2663h2.0632v.4083h-2.6624v-3.7018h2.6624ZM21.1952 8.65871 47.047 14.9927v22.1956l-25.8518-6.3311V8.65871Zm-1.6581-1.89199V31.9354l29.1646 7.1478V13.9175L19.5371 6.76672Z"/><path d="M35.168 50.7667 6 43.6129v-25.166l29.168 7.1508v25.169Z"/><path d="m20.0205 8.37371 25.5147 6.25459-10.8507 9.3658-25.51814-6.2576L20.0205 8.37371Zm-.4835-1.60699L6 18.4475l29.168 7.1506 13.5336-11.6807L19.537 6.76672ZM36.8091 49.3509l11.8925-10.2646-11.8925-2.9172v13.1818Z"/></g> 
</svg> 





</svg>



